<svg width="104" height="60" viewBox="0 0 104 60" fill="none" xmlns="http://www.w3.org/2000/svg">
<path d="M104 0.0100251C93.1407 11.1529 87.0101 20.3008 85.598 27.4536C85.598 31.5188 83.9096 33.5539 80.5427 33.5539C68.7035 37.5439 59.8693 44.5013 54.0302 54.4311C52.3417 57.5589 51.5025 59.4135 51.5025 60L43.3317 47.8045C34.8643 39.2832 26.3618 34.2005 17.8191 32.5564C17.8141 24.1103 11.8744 13.7694 0 1.53383H1C2.56784 1.53383 11.7387 4.58145 28.5126 10.6817C28.5126 16.4311 32.608 23.213 40.799 31.0326C41.3869 31.3835 42.0503 31.5589 42.799 31.5589H43.3266C44.6985 28.9023 45.3819 24.3058 45.3819 17.7794V17.3083C47.809 21.3333 49.6734 23.5238 50.9648 23.8747C52.4523 23.8747 54.6683 21.5088 57.608 16.7769V24.401C57.608 26.5514 58.1156 28.9373 59.1357 31.5539H60.6633C69.1307 24.3609 73.3618 18.2406 73.3618 13.198C73.3618 10.381 76.9296 8.35088 84.0603 7.09774C84.8442 6.51128 91.4874 4.14536 103.99 0L104 0.0100251Z" fill="white"/>
<path d="M104 0.0100251C93.1407 11.1529 87.0101 20.3008 85.598 27.4536C85.598 31.5188 83.9096 33.5539 80.5427 33.5539C68.7035 37.5439 59.8693 44.5013 54.0302 54.4311C52.3417 57.5589 51.5025 59.4135 51.5025 60L43.3317 47.8045C34.8643 39.2832 26.3618 34.2005 17.8191 32.5564C17.8141 24.1103 11.8744 13.7694 0 1.53383H1C2.56784 1.53383 11.7387 4.58145 28.5126 10.6817C28.5126 16.4311 32.608 23.213 40.799 31.0326C41.3869 31.3835 42.0503 31.5589 42.799 31.5589H43.3266C44.6985 28.9023 45.3819 24.3058 45.3819 17.7794V17.3083C47.809 21.3333 49.6734 23.5238 50.9648 23.8747C52.4523 23.8747 54.6683 21.5088 57.608 16.7769V24.401C57.608 26.5514 58.1156 28.9373 59.1357 31.5539H60.6633C69.1307 24.3609 73.3618 18.2406 73.3618 13.198C73.3618 10.381 76.9296 8.35088 84.0603 7.09774C84.8442 6.51128 91.4874 4.14536 103.99 0L104 0.0100251Z" fill="white"/>
</svg>
