<svg width="44" height="49" viewBox="0 0 44 49" fill="none" xmlns="http://www.w3.org/2000/svg">
<g clip-path="url(#clip0_10_2)">
<path d="M20.5551 49C19.3507 47.7944 18.1497 46.5921 16.9453 45.3865C16.7574 45.1967 16.5695 45.0035 16.2844 44.7105C16.5091 44.5406 16.7306 44.4141 16.905 44.2409C21.414 39.7782 25.9263 35.3154 30.4252 30.8427C32.1228 29.1542 33.7936 27.4424 35.4844 25.7472C36.1084 25.1211 36.5077 24.3785 36.7157 23.5259C36.7995 23.1828 36.7761 22.8631 36.6888 22.5168C36.4674 21.6309 36.0044 20.8982 35.3636 20.2621C33.2434 18.1573 31.1231 16.0558 29.0028 13.951C28.4425 13.3948 28.4425 13.3782 29.1739 13.0152C30.0763 12.5656 31.0023 12.1859 31.9953 11.9461C33.911 11.4865 35.736 11.7196 37.4504 12.6155C39.7787 13.8344 41.6239 15.5962 42.892 17.8842C44.3816 20.5685 44.3346 23.3061 42.9591 26.0337C42.4022 27.1393 41.691 28.1385 40.8288 29.0277C39.886 30.0001 38.95 30.9826 37.9838 31.9351C32.3778 37.4635 26.765 42.9887 21.1557 48.5138C20.998 48.6703 20.8537 48.8368 20.7027 49H20.5551Z" fill="white"/>
<path d="M0 24.9579C0.144261 24.475 0.271747 23.9854 0.436137 23.5125C1.13395 21.5276 2.34507 19.8724 3.83129 18.3971C8.60531 13.6712 13.3827 8.94542 18.1601 4.2196C19.4584 2.93407 20.7635 1.65187 22.0652 0.373003C22.1859 0.253109 22.3134 0.143207 22.4711 0C22.6489 0.159859 22.82 0.299735 22.971 0.452933C24.1183 1.60858 25.259 2.77088 26.403 3.92986C26.7352 4.26623 26.7385 4.27955 26.393 4.62591C24.7289 6.28111 23.0649 7.93631 21.3975 9.58818C17.167 13.7778 12.9398 17.9674 8.70596 22.1504C8.17253 22.6766 7.71626 23.2528 7.47135 23.9621C7.01509 25.2876 7.39755 26.4166 8.3604 27.3824C9.387 28.4149 10.4237 29.4406 11.457 30.4697C12.544 31.5488 13.6343 32.6245 14.7213 33.7035C14.8924 33.8734 15.0534 34.0532 15.2816 34.2963C14.7884 34.5827 14.3623 34.8658 13.906 35.089C12.3427 35.8583 10.6786 36.1847 8.94415 36.0048C7.77665 35.8849 6.68631 35.462 5.69661 34.8425C3.54277 33.4904 1.78816 31.7586 0.714593 29.4373C0.449556 28.8678 0.318715 28.2383 0.124131 27.6355C0.104002 27.5723 0.0469685 27.519 0.00670979 27.4624V24.9546L0 24.9579Z" fill="white"/>
<path d="M22.062 27.7721C20.0155 27.8886 18.2777 25.9537 18.2744 23.9954C18.2744 22.1304 20.0155 20.2154 22.0654 20.2554C24.1286 20.292 25.8329 21.7408 25.8866 24.0321C25.9369 26.2334 23.877 27.9652 22.062 27.7754V27.7721Z" fill="white"/>
</g>
<defs>
<clipPath id="clip0_10_2">
<rect width="44" height="49" fill="white"/>
</clipPath>
</defs>
</svg>
