<svg width="121" height="41" viewBox="0 0 121 41" fill="none" xmlns="http://www.w3.org/2000/svg">
<path d="M60.3899 5.65187C62.0836 5.65187 62.7652 5.98878 62.7652 5.98878L63.7842 1.69833C63.7842 1.69833 64.576 4.97116 64.9134 7.90709C65.2508 10.843 70.4559 8.92468 74.8625 8.01709C79.2759 7.11637 80.1778 0 80.1778 0H121C121 0 96.3442 7.45328 102.568 23.8313C102.568 23.8313 66.1527 18.2963 60.5 41C54.8473 18.3032 18.4316 23.8313 18.4316 23.8313C24.6489 7.45328 0 0 0 0H40.8222C40.8222 0 41.7241 7.11637 46.1375 8.01709C50.5509 8.91781 55.7492 10.843 56.0866 7.90709C56.424 4.97116 57.2158 1.69833 57.2158 1.69833L58.2348 5.98878C58.2348 5.98878 58.9164 5.65187 60.6102 5.65187H60.3899Z" fill="#FFFF00"/>
</svg>
